<?xml version="1.0" encoding="utf-8"?>
<!-- Generator: Adobe Illustrator 16.0.0, SVG Export Plug-In . SVG Version: 6.00 Build 0)  -->
<!DOCTYPE svg PUBLIC "-//W3C//DTD SVG 1.1//EN" "http://www.w3.org/Graphics/SVG/1.1/DTD/svg11.dtd">
<svg version="1.1" id="Layer_1" xmlns="http://www.w3.org/2000/svg" xmlns:xlink="http://www.w3.org/1999/xlink" x="0px" y="0px"
	 width="708px" height="474px" viewBox="353.16 393.16 708 474" enable-background="new 353.16 393.16 708 474"
	 xml:space="preserve">
<rect x="353.16" y="393.16" display="none" fill="#424242" width="708" height="474"/>
<rect x="612.04" y="811.41" fill="#FFFFFF" width="91.34" height="5.43"/>
<path fill="#FFFFFF" d="M916.549,669.614h-6.568V508.973h6.568V669.614z M910.428,669.186h5.599V509.42h-5.599V669.186z"/>
<polygon fill="#FFFFFF" points="1004.623,594.695 1004.436,594.304 1027.015,583.425 1027.201,583.816 "/>
<path fill="#FFFFFF" d="M1027.331,642.11h-23.025V536.496h23.025V642.11z M1004.753,641.662h22.131V536.925h-22.131V641.662z"/>
<path fill="#FFFFFF" d="M636.298,733.524v16.252h-95.165v-16.252H636.298 M636.745,733.076h-96.022v17.148h95.967v-17.148H636.745z"
	/>
<path fill="#FFFFFF" d="M412.754,730.259v86.114h90.724v5.599h-90.724v0.541h-5.766v-92.254H412.754 M413.202,729.811h-6.643v93.299
	h6.643v-0.541h90.724V816h-90.724V729.811z"/>
<rect x="430.443" y="452.34" fill="#FFFFFF" width="0.447" height="115.299"/>
<rect x="405.682" y="465.048" fill="#FFFFFF" width="25.303" height="0.447"/>
<rect x="405.682" y="477.699" fill="#FFFFFF" width="25.303" height="0.447"/>
<rect x="405.682" y="490.35" fill="#FFFFFF" width="25.303" height="0.448"/>
<rect x="405.682" y="503.001" fill="#FFFFFF" width="25.303" height="0.448"/>
<rect x="405.682" y="515.652" fill="#FFFFFF" width="25.303" height="0.448"/>
<rect x="405.682" y="528.304" fill="#FFFFFF" width="25.303" height="0.448"/>
<rect x="405.682" y="540.955" fill="#FFFFFF" width="25.303" height="0.448"/>
<rect x="405.682" y="553.606" fill="#FFFFFF" width="25.303" height="0.448"/>
<rect x="910.596" y="477.064" fill="#FFFFFF" width="116.512" height="0.447"/>
<rect x="923.434" y="452.042" fill="#FFFFFF" width="0.448" height="25.563"/>
<rect x="936.216" y="452.042" fill="#FFFFFF" width="0.448" height="25.563"/>
<rect x="948.998" y="452.042" fill="#FFFFFF" width="0.447" height="25.563"/>
<rect x="961.779" y="452.042" fill="#FFFFFF" width="0.448" height="25.563"/>
<rect x="974.58" y="452.042" fill="#FFFFFF" width="0.448" height="25.563"/>
<rect x="987.362" y="452.042" fill="#FFFFFF" width="0.448" height="25.563"/>
<rect x="1000.145" y="452.042" fill="#FFFFFF" width="0.447" height="25.563"/>
<rect x="1012.926" y="452.042" fill="#FFFFFF" width="0.448" height="25.563"/>
<rect x="655.741" y="589.098" fill="#FFFFFF" width="0.448" height="84.454"/>
<rect x="655.723" y="598.334" fill="#FFFFFF" width="18.529" height="0.448"/>
<rect x="655.723" y="607.608" fill="#FFFFFF" width="18.529" height="0.447"/>
<rect x="655.723" y="616.882" fill="#FFFFFF" width="18.529" height="0.448"/>
<rect x="655.723" y="626.137" fill="#FFFFFF" width="18.529" height="0.448"/>
<rect x="655.723" y="635.411" fill="#FFFFFF" width="18.529" height="0.448"/>
<rect x="655.723" y="644.685" fill="#FFFFFF" width="18.529" height="0.448"/>
<rect x="655.723" y="653.94" fill="#FFFFFF" width="18.529" height="0.447"/>
<rect x="655.723" y="663.214" fill="#FFFFFF" width="18.529" height="0.448"/>
<path fill="#FFFFFF" d="M842.824,807.491l-33.588-5.038l10.691-13.397l22.225-14.2l6.213,15.842l0,0L842.824,807.491z
	 M810.113,802.136l32.412,4.87l5.411-16.29l-5.972-15.188l-21.72,13.883L810.113,802.136z"/>
<path fill="#FFFFFF" d="M841.256,804.916l-27.149-4.086l8.677-10.86l17.951-11.476l5.038,12.838l0,0L841.256,804.916z
	 M814.928,800.513l26.03,3.899l4.348-13.062l-4.796-12.185l-17.465,11.195L814.928,800.513z"/>
<path fill="#FFFFFF" d="M873.276,823.855l-29.855-16.103l5.598-16.794l0,0l14.425-8.901l9.329,24.78L873.276,823.855z
	 M843.962,807.528l28.849,15.563l-0.467-16.253l-9.05-24.146l-13.901,8.564L843.962,807.528z"/>
<path fill="#FFFFFF" d="M869.824,819.34l-23.996-12.931l4.516-13.473l0,0l11.588-7.128l7.464,19.873L869.824,819.34z
	 M846.369,806.186l22.988,12.408l-0.373-12.912l-7.221-19.275l-11.047,6.811L846.369,806.186z"/>
<path fill="#FFFFFF" d="M557.494,673.085h-35.547v-16.383h35.547V673.085z M522.47,672.581h34.502v-15.375H522.47V672.581z"/>
<polygon fill="#FFFFFF" points="1004.623,552.226 1004.436,551.815 1027.015,540.937 1027.201,541.348 "/>
<polygon fill="#FFFFFF" points="1004.623,562.844 1004.436,562.433 1027.015,551.572 1027.201,551.965 "/>
<polygon fill="#FFFFFF" points="1004.623,573.461 1004.436,573.068 1027.015,562.19 1027.201,562.582 "/>
<polygon fill="#FFFFFF" points="1004.623,584.078 1004.436,583.687 1027.015,572.808 1027.201,573.199 "/>
<polygon fill="#FFFFFF" points="1004.623,605.313 1004.436,604.921 1027.015,594.042 1027.201,594.435 "/>
<polygon fill="#FFFFFF" points="1004.623,615.931 1004.436,615.538 1027.015,604.66 1027.201,605.052 "/>
<polygon fill="#FFFFFF" points="1004.623,626.548 1004.436,626.156 1027.015,615.277 1027.201,615.669 "/>
<polygon fill="#FFFFFF" points="1004.623,637.165 1004.436,636.773 1027.015,625.895 1027.201,626.286 "/>
<g>
	<rect x="746.055" y="680.586" fill="#FFFFFF" width="95.893" height="0.448"/>
	<rect x="745.83" y="673.552" fill="#FFFFFF" width="0.448" height="14.498"/>
	<rect x="841.723" y="673.552" fill="#FFFFFF" width="0.448" height="14.498"/>
</g>
<path fill="#FFFFFF" d="M769.894,734.841c-4.771,0.088-8.71-3.709-8.798-8.48s3.709-8.71,8.48-8.798l0,0
	c4.766-0.158,8.765,3.559,8.957,8.322c0.179,4.768-3.543,8.777-8.311,8.956c-0.004,0-0.008,0-0.012,0H769.894z M769.894,718.048
	h-0.317c-4.521,0.155-8.061,3.947-7.904,8.469c0.075,2.184,1.02,4.247,2.624,5.73c3.318,3.075,8.501,2.878,11.576-0.44
	s2.878-8.501-0.44-11.576C773.925,718.834,771.948,718.055,769.894,718.048z"/>
<path fill="#FFFFFF" d="M777.616,757.391c-4.771,0.088-8.71-3.709-8.798-8.48s3.709-8.71,8.48-8.798l0,0
	c4.766-0.158,8.765,3.559,8.957,8.322c0.179,4.768-3.543,8.777-8.311,8.956c-0.004,0-0.008,0-0.012,0H777.616z M777.616,740.598
	h-0.317c-4.521,0.155-8.061,3.947-7.904,8.469c0.075,2.184,1.02,4.247,2.624,5.73c3.318,3.075,8.501,2.878,11.576-0.44
	s2.878-8.501-0.44-11.576C781.647,741.384,779.671,740.604,777.616,740.598z"/>
<path fill="#FFFFFF" d="M784.668,779.889c-4.771,0.088-8.71-3.709-8.798-8.48s3.709-8.71,8.48-8.798l0,0
	c4.766-0.158,8.765,3.559,8.957,8.322c0.179,4.768-3.543,8.777-8.311,8.956c-0.004,0-0.008,0-0.012,0H784.668z M784.668,763.096
	h-0.317c-4.521,0.155-8.061,3.947-7.904,8.469c0.075,2.184,1.02,4.247,2.624,5.73c3.318,3.075,8.501,2.878,11.576-0.44
	s2.878-8.501-0.44-11.576C788.699,763.882,786.723,763.103,784.668,763.096z"/>
<rect x="588.063" y="450.362" fill="#FFFFFF" width="4.44" height="20.75"/>
<rect x="588.063" y="500.575" fill="#FFFFFF" width="4.44" height="38.98"/>
<rect x="588.081" y="496.713" fill="#FFFFFF" width="14.741" height="4.441"/>
<rect x="404.693" y="567.359" fill="#FFFFFF" width="37.32" height="4.44"/>
<rect x="488.773" y="567.359" fill="#FFFFFF" width="35.436" height="4.44"/>
<rect x="538.949" y="589.098" fill="#FFFFFF" width="4.441" height="27.729"/>
<rect x="753.779" y="682.732" fill="#FFFFFF" width="19.369" height="1.735"/>
<rect x="774.38" y="682.732" fill="#FFFFFF" width="19.369" height="1.735"/>
<path fill="#FFFFFF" d="M711.664,824.808H402.472V448.142h301.859v93.635H526.429v45.101h150.397v89.847H526.429v53.181h185.235
	V824.808z M406.895,820.311h300.311v-85.984H521.988v-62.043h150.416V591.3H521.988v-53.946h177.921v-84.771H406.951
	L406.895,820.311z"/>
<path fill="#FFFFFF" d="M881.244,835.238l-107.872-36.479l-0.336-1.045l-35.248-108.768v-0.393c0-0.13,0.336-13.826,1.008-25.022
	v-3.732h110.093v36.835c0,12.801,5.188,27.169,6.568,30.77l21.775,8.771l22.746-9.609c1.344-4.124,6.643-21.422,6.643-38.029
	V448.142h123.957v252.896c0,43.142-36.479,97.143-38.028,99.42l-0.448,0.634L881.244,835.238z M776.898,795.288l104.402,35.285
	l107.983-33.289c4.143-6.251,36.834-56.949,36.834-96.284V452.583H911.044v236.064c0,19.704-6.923,39.577-7.202,40.417l-0.336,0.914
	l-26.255,11.103l-25.209-10.169l-0.354-0.858c-0.299-0.71-7.259-17.728-7.259-33.308v-32.412H743.199
	c-0.578,9.964-0.896,21.757-0.951,23.996L776.898,795.288z"/>
<rect x="794.98" y="682.732" fill="#FFFFFF" width="19.369" height="1.735"/>
<rect x="815.6" y="682.732" fill="#FFFFFF" width="19.368" height="1.735"/>
<g>
	<rect x="685.699" y="458.379" fill="#FFFFFF" width="0.448" height="73.302"/>
	<rect x="678.665" y="531.509" fill="#FFFFFF" width="14.498" height="0.344"/>
	<rect x="678.665" y="458.208" fill="#FFFFFF" width="14.498" height="0.342"/>
</g>
<rect x="687.846" y="510.97" fill="#FFFFFF" width="1.735" height="14.806"/>
<rect x="687.846" y="495.223" fill="#FFFFFF" width="1.735" height="14.806"/>
<rect x="687.846" y="479.475" fill="#FFFFFF" width="1.735" height="14.806"/>
<rect x="687.846" y="463.714" fill="#FFFFFF" width="1.735" height="14.806"/>
<rect x="741.837" y="662.431" fill="#FFFFFF" width="103.151" height="6.139"/>
<rect x="685.914" y="732.498" fill="#FFFFFF" width="17.895" height="16.252"/>
<path fill="#FFFFFF" d="M554.232,753.061h25.283c1.546,0,2.799,1.253,2.799,2.799v0.02c0,1.545-1.253,2.799-2.799,2.799h-25.283
	c-1.546,0-2.8-1.254-2.8-2.799v-0.02C551.433,754.313,552.687,753.061,554.232,753.061z"/>
<path fill="#FFFFFF" d="M571.455,770.807h-9.162c-3.148,0.18-5.847-2.227-6.027-5.374c-0.18-3.148,2.227-5.847,5.374-6.027
	c0.218-0.013,0.436-0.013,0.653,0h9.162c3.148-0.181,5.847,2.226,6.027,5.374c0.18,3.148-2.227,5.847-5.374,6.027
	C571.891,770.818,571.673,770.818,571.455,770.807z M562.293,760.282c-2.664,0.165-4.689,2.459-4.523,5.123
	c0.151,2.434,2.091,4.373,4.523,4.524h9.162c2.664-0.166,4.689-2.46,4.523-5.124c-0.151-2.433-2.091-4.372-4.523-4.523H562.293z"/>
<path fill="#FFFFFF" d="M613.533,770.807h-9.162c-3.148,0.18-5.847-2.227-6.027-5.374c-0.181-3.148,2.226-5.847,5.374-6.027
	c0.218-0.013,0.436-0.013,0.653,0h9.162c3.147-0.181,5.847,2.226,6.026,5.374c0.181,3.148-2.226,5.847-5.374,6.027
	C613.969,770.818,613.75,770.818,613.533,770.807z M604.371,760.282c-2.664,0.165-4.689,2.459-4.523,5.123
	c0.15,2.434,2.09,4.373,4.523,4.524h9.162c2.663-0.166,4.688-2.46,4.523-5.124c-0.151-2.433-2.091-4.372-4.523-4.523H604.371z"/>
<path fill="#FFFFFF" d="M596.683,753.061h25.284c1.546,0,2.799,1.253,2.799,2.799v0.02c0,1.545-1.253,2.799-2.799,2.799h-25.284
	c-1.546,0-2.799-1.254-2.799-2.799v-0.02C593.884,754.313,595.137,753.061,596.683,753.061z"/>
<path fill="#FFFFFF" d="M710.321,824.359h-7.464v-0.541H612.04v-7.464h90.724v-86.096h7.464L710.321,824.359z M704.574,822.587
	h3.974v-90.556h-3.974v86.115h-90.668v3.899h90.742L704.574,822.587z"/>
<rect x="417.438" y="707.232" fill="#FFFFFF" width="2.333" height="11.457"/>
<rect x="404.693" y="687.92" fill="#FFFFFF" width="8.621" height="91.209"/>
<rect x="417.438" y="720.947" fill="#FFFFFF" width="2.333" height="11.457"/>
<rect x="417.438" y="734.662" fill="#FFFFFF" width="2.333" height="11.457"/>
<rect x="417.438" y="748.358" fill="#FFFFFF" width="2.333" height="11.457"/>
<path fill="#FFFFFF" d="M553.433,608.97c-3.318,0-6.009-2.69-6.009-6.009s2.69-6.008,6.009-6.008s6.009,2.689,6.009,6.008
	C559.431,606.276,556.747,608.96,553.433,608.97z M553.433,598.726c-2.339,0-4.235,1.896-4.235,4.235
	c0,2.34,1.896,4.236,4.235,4.236s4.235-1.896,4.235-4.236C557.668,600.623,555.771,598.726,553.433,598.726L553.433,598.726z"/>
<path fill="#FFFFFF" d="M603.821,531.3c-3.318,0-6.008-2.69-6.008-6.009s2.689-6.008,6.008-6.008s6.01,2.689,6.01,6.008
	C609.819,528.606,607.136,531.291,603.821,531.3z M603.821,521.056c-2.338,0-4.234,1.896-4.234,4.235
	c0,2.34,1.896,4.236,4.234,4.236c2.34,0,4.236-1.896,4.236-4.236C608.058,522.953,606.161,521.056,603.821,521.056L603.821,521.056z
	"/>
<path fill="#FFFFFF" d="M591.515,472.026v24.873h-2.575v-24.873H591.515 M592.429,471.112h-4.423v26.721h4.423V471.112z"/>
<line fill="#FFFFFF" x1="900.595" y1="730.408" x2="910.969" y2="748.377"/>
<line fill="#FFFFFF" x1="946.722" y1="810.327" x2="925.505" y2="773.568"/>
<line fill="#FFFFFF" x1="935.73" y1="766.216" x2="922.968" y2="773.587"/>
<g>
	<path fill="#FFFFFF" d="M922.475,772.784l-0.091-0.169l-13.175-23.401l3.872-2.19l0.109,0.188l13.174,23.495L922.475,772.784z
		 M909.712,749.276l12.863,22.932l3.141-1.826l-12.863-22.95L909.712,749.276z"/>
	
		<rect x="903.974" y="728.818" transform="matrix(-0.8724 0.4889 -0.4889 -0.8724 2058.0835 941.0454)" fill="#FFFFFF" width="4.441" height="20.749"/>
	
		<rect x="933.816" y="770.797" transform="matrix(-0.8723 0.4889 -0.4889 -0.8723 2140.0825 1026.0245)" fill="#FFFFFF" width="4.526" height="43.268"/>
	
		<rect x="921.983" y="767.75" transform="matrix(-0.8724 0.4887 -0.4887 -0.8724 2116.46 987.5275)" fill="#FFFFFF" width="14.741" height="4.441"/>
</g>
<polygon fill="#FFFFFF" points="538.068,656.951 538.068,660.347 553.612,660.347 553.612,673.353 557.494,673.353 557.494,660.347 
	557.494,660.235 557.494,656.951 "/>
<rect x="919.086" y="509.196" fill="#FFFFFF" width="2.725" height="30.191"/>
<rect x="919.086" y="541.496" fill="#FFFFFF" width="2.725" height="30.191"/>
<rect x="919.086" y="573.797" fill="#FFFFFF" width="2.725" height="30.191"/>
<rect x="919.086" y="606.078" fill="#FFFFFF" width="2.725" height="30.191"/>
<rect x="919.086" y="638.378" fill="#FFFFFF" width="2.725" height="30.191"/>
<circle fill="#FFFFFF" cx="997.961" cy="556.547" r="3.62"/>
<circle fill="#FFFFFF" cx="997.961" cy="589.23" r="3.62"/>
<circle fill="#FFFFFF" cx="997.961" cy="621.912" r="3.62"/>
<circle fill="#FFFFFF" cx="678.665" cy="741.65" r="3.62"/>
<rect x="747.454" y="706.523" fill="#FFFFFF" width="39.129" height="5.616"/>
<rect x="773.866" y="782.809" transform="matrix(-0.8143 0.5804 -0.5804 -0.8143 1895.5215 964.8418)" fill="#FFFFFF" width="39.129" height="5.617"/>
<rect x="488.773" y="567.639" fill="#FFFFFF" width="4.684" height="19.238"/>
<g>
	
		<line fill="none" stroke="#FFFFFF" stroke-width="0.4" stroke-miterlimit="10" x1="527.79" y1="657.087" x2="522.233" y2="670.22"/>
	
		<line fill="none" stroke="#FFFFFF" stroke-width="0.4" stroke-miterlimit="10" x1="532.052" y1="657.087" x2="525.759" y2="672.7"/>
	
		<line fill="none" stroke="#FFFFFF" stroke-width="0.4" stroke-miterlimit="10" x1="536.396" y1="657.087" x2="530.102" y2="672.7"/>
	
		<line fill="none" stroke="#FFFFFF" stroke-width="0.4" stroke-miterlimit="10" x1="540.739" y1="657.087" x2="534.445" y2="672.7"/>
	
		<line fill="none" stroke="#FFFFFF" stroke-width="0.4" stroke-miterlimit="10" x1="545.082" y1="657.087" x2="538.789" y2="672.7"/>
	
		<line fill="none" stroke="#FFFFFF" stroke-width="0.4" stroke-miterlimit="10" x1="549.425" y1="657.087" x2="543.132" y2="672.7"/>
	
		<line fill="none" stroke="#FFFFFF" stroke-width="0.4" stroke-miterlimit="10" x1="553.769" y1="657.087" x2="547.475" y2="672.7"/>
	<line fill="none" stroke="#FFFFFF" stroke-width="0.4" stroke-miterlimit="10" x1="557.208" y1="659.33" x2="551.818" y2="672.7"/>
</g>
</svg>
