<?xml version="1.0" encoding="utf-8"?>
<!-- Generator: Adobe Illustrator 25.0.1, SVG Export Plug-In . SVG Version: 6.00 Build 0)  -->
<svg version="1.1" id="Layer_1" xmlns="http://www.w3.org/2000/svg" xmlns:xlink="http://www.w3.org/1999/xlink" x="0px" y="0px"
	 viewBox="0 0 759.56 468.33" style="enable-background:new 0 0 759.56 468.33;" xml:space="preserve">
<style type="text/css">
	.st0{fill:#919191;}
	.st1{fill:#FFFFFF;}
	.st2{fill:#1C1300;}
	.st3{fill:#ED1D32;}
	.st4{fill:none;stroke:#000000;stroke-width:5;}
	.st5{display:none;opacity:0.5;fill:#E79524;}
	.st6{opacity:0.5;fill:#E79524;}
	.st7{display:none;opacity:0.5;fill:#477B42;}
	.st8{opacity:0.5;fill:#477B42;}
	.st9{opacity:0.5;fill:#8B194D;}
	.st10{opacity:0.5;fill:#392F90;}
	.st11{fill:none;stroke:#000000;stroke-miterlimit:10;}
	.st12{fill:none;stroke:#000000;stroke-width:2;stroke-miterlimit:10;}
	.st13{fill:none;stroke:#919191;stroke-width:0.5;stroke-miterlimit:10;}
	.st14{display:none;}
	.st15{display:inline;}
	.st16{fill:#A5A3A4;}
</style>
<g>
	<rect x="278.56" y="409.53" class="st1" width="92.16" height="5.49"/>
</g>
<polygon class="st5" points="375.09,96.64 280.41,96.64 273.61,96.64 218.11,96.64 218.11,158.59 280.41,158.59 280.41,144.15 
	375.09,144.15 "/>
<polygon class="st7" points="280.35,246.94 280.35,214.67 360.35,214.67 360.35,170.2 280.35,170.2 280.35,158.59 218.11,158.59 
	218.11,294.03 276.87,294.03 276.87,295.69 380.2,295.69 380.2,246.94 "/>
<path class="st9" d="M546.16,335.69l-23.71-9.56c0,0-7.14-17.3-7.14-32.77v-34.93H408.72v1.53c-0.68,11.39-1.02,25.24-1.02,25.24
	l35.44,109.39l107.1,36.21l64.79-19.98l-48-83.96L546.16,335.69z"/>
<path class="st10" d="M578.03,43.74V284.2c0,19.72-7.14,40.03-7.14,40.03l-3.87,1.64l48,83.96l45.62-14.07
	c0,0,37.99-55.72,37.99-99.06V43.74H578.03z"/>
<g>
	<path class="st0" d="M585.84,266.45h-6.63v-162.1h6.63V266.45z M579.66,266.01h5.73V104.8h-5.73V266.01z"/>
</g>
<g class="st14">
	<g class="st15">
		<g>
			<g>
				<polygon class="st16" points="538.39,173.09 538.29,172.88 550.39,167.05 550.49,167.26 				"/>
			</g>
		</g>
	</g>
	<g class="st15">
		<g>
			<path class="st16" d="M550.56,198.5h-12.33v-56.6h12.33V198.5z M538.46,198.26h11.86v-56.13h-11.86V198.26z"/>
		</g>
	</g>
	<g class="st15">
		<g>
			<path class="st16" d="M340.97,247.49v8.71h-50.95v-8.71H340.97 M341.21,247.25h-0.24h-50.95h-0.24v0.24v8.71v0.24h0.24h50.95
				h0.24v-0.24v-8.71V247.25L341.21,247.25z"/>
		</g>
	</g>
	<g class="st15">
		<g>
			<path class="st16" d="M221.2,245.74v46.15h48.62v3.05H221.2v0.29h-3.09v-49.48H221.2 M221.44,245.5h-0.24h-3.09h-0.24v0.24v49.48
				v0.24h0.24h3.09h0.24v-0.24v-0.05h48.38h0.24v-0.24v-3.05v-0.24h-0.24h-48.38v-45.91V245.5L221.44,245.5z"/>
		</g>
	</g>
	<g class="st15">
		<g>
			<g>
				<rect x="230.68" y="96.8" class="st16" width="0.24" height="61.79"/>
			</g>
		</g>
		<g>
			<g>
				<rect x="217.41" y="103.61" class="st16" width="13.56" height="0.24"/>
			</g>
		</g>
		<g>
			<g>
				<rect x="217.41" y="110.39" class="st16" width="13.56" height="0.24"/>
			</g>
		</g>
		<g>
			<g>
				<rect x="217.41" y="117.17" class="st16" width="13.56" height="0.24"/>
			</g>
		</g>
		<g>
			<g>
				<rect x="217.41" y="123.95" class="st16" width="13.56" height="0.24"/>
			</g>
		</g>
		<g>
			<g>
				<rect x="217.41" y="130.73" class="st16" width="13.56" height="0.24"/>
			</g>
		</g>
		<g>
			<g>
				<rect x="217.41" y="137.51" class="st16" width="13.56" height="0.24"/>
			</g>
		</g>
		<g>
			<g>
				<rect x="217.41" y="144.29" class="st16" width="13.56" height="0.24"/>
			</g>
		</g>
		<g>
			<g>
				<rect x="217.41" y="151.07" class="st16" width="13.56" height="0.24"/>
			</g>
		</g>
	</g>
	<g class="st15">
		<g>
			<g>
				<rect x="488" y="110.05" class="st16" width="62.44" height="0.24"/>
			</g>
		</g>
		<g>
			<g>
				<rect x="494.88" y="96.64" class="st16" width="0.24" height="13.7"/>
			</g>
		</g>
		<g>
			<g>
				<rect x="501.73" y="96.64" class="st16" width="0.24" height="13.7"/>
			</g>
		</g>
		<g>
			<g>
				<rect x="508.58" y="96.64" class="st16" width="0.24" height="13.7"/>
			</g>
		</g>
		<g>
			<g>
				<rect x="515.43" y="96.64" class="st16" width="0.24" height="13.7"/>
			</g>
		</g>
		<g>
			<g>
				<rect x="522.29" y="96.64" class="st16" width="0.24" height="13.7"/>
			</g>
		</g>
		<g>
			<g>
				<rect x="529.14" y="96.64" class="st16" width="0.24" height="13.7"/>
			</g>
		</g>
		<g>
			<g>
				<rect x="535.99" y="96.64" class="st16" width="0.24" height="13.7"/>
			</g>
		</g>
		<g>
			<g>
				<rect x="542.84" y="96.64" class="st16" width="0.24" height="13.7"/>
			</g>
		</g>
	</g>
	<g class="st15">
		<g>
			<g>
				<rect x="351.42" y="170.09" class="st16" width="0.24" height="45.26"/>
			</g>
		</g>
		<g>
			<g>
				<rect x="351.41" y="175.04" class="st16" width="9.93" height="0.24"/>
			</g>
		</g>
		<g>
			<g>
				<rect x="351.41" y="180.01" class="st16" width="9.93" height="0.24"/>
			</g>
		</g>
		<g>
			<g>
				<rect x="351.41" y="184.98" class="st16" width="9.93" height="0.24"/>
			</g>
		</g>
		<g>
			<g>
				<rect x="351.41" y="189.94" class="st16" width="9.93" height="0.24"/>
			</g>
		</g>
		<g>
			<g>
				<rect x="351.41" y="194.91" class="st16" width="9.93" height="0.24"/>
			</g>
		</g>
		<g>
			<g>
				<rect x="351.41" y="199.88" class="st16" width="9.93" height="0.24"/>
			</g>
		</g>
		<g>
			<g>
				<rect x="351.41" y="204.84" class="st16" width="9.93" height="0.24"/>
			</g>
		</g>
		<g>
			<g>
				<rect x="351.41" y="209.81" class="st16" width="9.93" height="0.24"/>
			</g>
		</g>
	</g>
	<g class="st15">
		<g>
			<g>
				<path class="st16" d="M451.68,287.13l-17.98-2.7l5.73-7.18l11.9-7.61l3.34,8.49l-0.01,0.04L451.68,287.13z M434.15,284.26
					l17.37,2.61l2.9-8.73l-3.2-8.14l-11.64,7.45L434.15,284.26z"/>
			</g>
		</g>
		<g>
			<g>
				<path class="st16" d="M450.84,285.75l-14.55-2.19l4.65-5.82l9.62-6.15l2.7,6.88l-0.01,0.04L450.84,285.75z M436.73,283.39
					l13.95,2.1l2.33-7.01l-2.57-6.53l-9.36,5.99L436.73,283.39z"/>
			</g>
		</g>
		<g>
			<g>
				<path class="st16" d="M468.01,295.9l-16-8.63l3.01-8.99l0.04-0.02l7.73-4.77l4.96,13.27L468.01,295.9z M452.3,287.15l15.46,8.34
					l-0.25-8.71l-4.84-12.95l-7.45,4.59L452.3,287.15z"/>
			</g>
		</g>
		<g>
			<g>
				<path class="st16" d="M466.15,293.48l-12.85-6.93l2.42-7.22l0.04-0.02l6.21-3.83l3.98,10.65L466.15,293.48z M453.58,286.43
					l12.32,6.64l-0.2-6.92l-3.86-10.33l-5.93,3.65L453.58,286.43z"/>
			</g>
		</g>
	</g>
	<g class="st15">
		<g>
			<path class="st16" d="M299.12,215.1h-19.05v-8.79h19.05V215.1z M280.35,214.83h18.49v-8.24h-18.49V214.83z"/>
		</g>
	</g>
	<g class="st15">
		<g>
			<polygon class="st16" points="538.39,150.33 538.29,150.11 550.39,144.29 550.49,144.5 			"/>
		</g>
	</g>
	<g class="st15">
		<g>
			<polygon class="st16" points="538.39,156.02 538.29,155.8 550.39,149.98 550.49,150.19 			"/>
		</g>
	</g>
	<g class="st15">
		<g>
			<polygon class="st16" points="538.39,161.71 538.29,161.49 550.39,155.67 550.49,155.88 			"/>
		</g>
	</g>
	<g class="st15">
		<g>
			<polygon class="st16" points="538.39,167.4 538.29,167.19 550.39,161.36 550.49,161.57 			"/>
		</g>
	</g>
	<g class="st15">
		<g>
			<polygon class="st16" points="538.39,178.78 538.29,178.57 550.39,172.74 550.49,172.95 			"/>
		</g>
	</g>
	<g class="st15">
		<g>
			<polygon class="st16" points="538.39,184.47 538.29,184.26 550.39,178.43 550.49,178.64 			"/>
		</g>
	</g>
	<g class="st15">
		<g>
			<path class="st16" d="M494.38,268.54l-0.06-0.1l-7.22-12.5l2.06-1.19l0.06,0.1l7.22,12.5L494.38,268.54z M487.42,256.03
				l7.05,12.21l1.67-0.96l-7.05-12.21L487.42,256.03z"/>
		</g>
	</g>
	<g class="st15">
		<g>
			<polygon class="st16" points="538.39,190.16 538.29,189.95 550.39,184.12 550.49,184.33 			"/>
		</g>
	</g>
	<g class="st15">
		<g>
			<polygon class="st16" points="538.39,195.85 538.29,195.64 550.39,189.81 550.49,190.02 			"/>
		</g>
	</g>
	<g class="st15">
		<g>
			<g>
				<rect x="399.82" y="219.12" class="st16" width="51.39" height="0.24"/>
			</g>
		</g>
		<g>
			<rect x="399.7" y="215.35" class="st16" width="0.24" height="7.77"/>
		</g>
		<g>
			<rect x="451.09" y="215.35" class="st16" width="0.24" height="7.77"/>
		</g>
	</g>
</g>
<g>
	<g>
		<path class="st0" d="M436.84,331.26c-2.21,0-4.3-0.82-5.93-2.33c-1.71-1.59-2.7-3.74-2.78-6.07c-0.09-2.33,0.74-4.55,2.32-6.26
			c1.58-1.71,3.74-2.69,6.07-2.78c2.34-0.09,4.55,0.74,6.26,2.32c1.71,1.58,2.69,3.74,2.78,6.07c0.09,2.33-0.74,4.55-2.32,6.26
			c-1.58,1.71-3.74,2.69-6.07,2.78C437.06,331.26,436.95,331.26,436.84,331.26z M436.86,314.26c-0.1,0-0.21,0-0.31,0.01
			c-4.56,0.17-8.13,4.01-7.96,8.57c0.08,2.21,1.02,4.25,2.64,5.76c1.62,1.5,3.72,2.3,5.94,2.2c2.21-0.08,4.25-1.02,5.76-2.64
			c1.5-1.62,2.29-3.73,2.2-5.94c-0.08-2.21-1.02-4.25-2.64-5.76C440.94,315.04,438.95,314.26,436.86,314.26z"/>
	</g>
	<g>
		<path class="st0" d="M446.2,354.37c-2.21,0-4.3-0.82-5.93-2.33c-1.71-1.58-2.69-3.74-2.78-6.07c-0.09-2.33,0.74-4.55,2.32-6.26
			c1.58-1.71,3.74-2.69,6.07-2.78c4.79-0.17,8.86,3.59,9.04,8.39c0.09,2.33-0.74,4.55-2.32,6.26c-1.58,1.71-3.74,2.69-6.07,2.78
			C446.42,354.37,446.31,354.37,446.2,354.37z M446.21,337.38c-0.1,0-0.21,0-0.31,0.01c-2.21,0.08-4.25,1.02-5.76,2.64
			c-1.5,1.62-2.29,3.73-2.2,5.94c0.08,2.21,1.02,4.25,2.64,5.76c1.62,1.5,3.72,2.29,5.94,2.2c2.21-0.08,4.25-1.02,5.76-2.64
			c1.5-1.62,2.29-3.73,2.2-5.94C454.31,340.89,450.63,337.38,446.21,337.38z"/>
	</g>
	<g>
		<path class="st0" d="M455.15,377.48c-2.21,0-4.3-0.82-5.93-2.33c-1.71-1.58-2.69-3.74-2.78-6.07c-0.09-2.33,0.74-4.55,2.32-6.26
			c1.59-1.71,3.74-2.7,6.07-2.78c0.11,0,0.22-0.01,0.33-0.01c4.66,0,8.54,3.7,8.71,8.4c0.18,4.8-3.59,8.86-8.39,9.04
			C455.37,377.48,455.26,377.48,455.15,377.48z M455.16,360.49c-0.1,0-0.21,0-0.31,0.01c-2.21,0.08-4.25,1.02-5.75,2.64
			c-1.5,1.62-2.29,3.73-2.2,5.94c0.08,2.21,1.02,4.25,2.64,5.76c1.62,1.5,3.72,2.3,5.94,2.2c4.56-0.17,8.13-4.01,7.96-8.57
			c-0.08-2.21-1.02-4.25-2.64-5.76C459.24,361.27,457.25,360.49,455.16,360.49z"/>
	</g>
</g>
<g>
	<rect x="254.38" y="45.2" class="st1" width="4.48" height="20.93"/>
</g>
<g>
	<rect x="254.38" y="95.87" class="st1" width="4.48" height="39.34"/>
</g>
<g>
	<rect x="254.4" y="91.99" class="st1" width="14.87" height="4.47"/>
</g>
<g>
	<rect x="69.33" y="163.26" class="st1" width="37.65" height="4.47"/>
</g>
<g>
	<rect x="154.19" y="163.26" class="st1" width="35.76" height="4.47"/>
</g>
<g>
	<rect x="204.81" y="185.19" class="st1" width="4.48" height="27.98"/>
</g>
<rect x="421.59" y="279.68" class="st1" width="19.54" height="1.75"/>
<rect x="442.38" y="279.68" class="st1" width="19.54" height="1.75"/>
<g>
	<g>
		<path class="st1" d="M379.09,423.04H67.09V42.97H371.7v94.49H192.18v45.5h151.77v90.66H192.18v53.66h186.91V423.04z M71.57,418.57
			h303.05v-86.81H187.7v-62.61h151.77v-81.71H187.7v-54.45h179.53V47.44H71.57V418.57z"/>
	</g>
</g>
<g>
	<path class="st1" d="M550.21,433.61l-108.85-36.8l-0.35-1.07l-35.56-109.75l0.01-0.38c0-0.14,0.35-13.97,1.02-25.26v-3.7h111.06
		v37.17c0,12.92,5.23,27.41,6.63,31.05l21.96,8.86l22.95-9.7c1.36-4.16,6.7-21.61,6.7-38.37V42.97h125.09v255.19
		c0,43.54-36.82,98.03-38.38,100.32l-0.44,0.65L550.21,433.61z M444.93,393.29l105.35,35.62l108.96-33.59
		c4.17-6.31,37.18-57.48,37.18-97.16V47.44H580.27v238.22c0,19.88-6.97,39.93-7.27,40.78l-0.33,0.93l-26.5,11.2l-25.44-10.26
		l-0.36-0.87c-0.3-0.72-7.31-17.89-7.31-33.62v-32.7H410.92c-0.59,10.06-0.91,21.95-0.97,24.21L444.93,393.29z"/>
</g>
<rect x="463.17" y="279.68" class="st1" width="19.54" height="1.75"/>
<rect x="483.97" y="279.68" class="st1" width="19.54" height="1.75"/>
<rect x="409.55" y="259.19" class="st1" width="104.08" height="6.2"/>
<g>
	<rect x="353.11" y="329.91" class="st1" width="18.05" height="16.4"/>
</g>
<g>
	<path class="st1" d="M245.74,356.31h-25.49c-1.56,0-2.83-1.27-2.83-2.83l0,0c0-1.56,1.27-2.83,2.83-2.83h25.49
		c1.56,0,2.83,1.27,2.83,2.83l0,0C248.57,355.04,247.3,356.31,245.74,356.31z"/>
</g>
<g>
	<path class="st1" d="M237.62,368.56h-9.24c-3.18,0-5.76-2.58-5.76-5.76c0-3.17,2.58-5.76,5.76-5.76h9.24
		c3.18,0,5.76,2.58,5.76,5.76C243.37,365.98,240.79,368.56,237.62,368.56z M228.37,357.94c-2.68,0-4.86,2.18-4.86,4.86
		s2.18,4.86,4.86,4.86h9.24c2.68,0,4.86-2.18,4.86-4.86s-2.18-4.86-4.86-4.86H228.37z"/>
</g>
<g>
	<path class="st1" d="M280.08,368.56h-9.24c-3.18,0-5.76-2.58-5.76-5.76c0-3.17,2.58-5.76,5.76-5.76h9.24
		c3.18,0,5.76,2.58,5.76,5.76C285.83,365.98,283.25,368.56,280.08,368.56z M270.83,357.94c-2.68,0-4.86,2.18-4.86,4.86
		s2.18,4.86,4.86,4.86h9.24c2.68,0,4.86-2.18,4.86-4.86s-2.18-4.86-4.86-4.86H270.83z"/>
</g>
<g>
	<path class="st1" d="M288.57,356.31h-25.49c-1.56,0-2.83-1.27-2.83-2.83l0,0c0-1.56,1.27-2.83,2.83-2.83h25.49
		c1.56,0,2.83,1.27,2.83,2.83l0,0C291.41,355.04,290.13,356.31,288.57,356.31z"/>
</g>
<g>
	<path class="st1" d="M377.75,422.59h-7.61v-0.54h-91.55v-7.52h91.55v-86.9h7.61V422.59z M371.93,420.8h4.02v-91.38h-4.02v86.9
		h-91.55v3.94h91.55V420.8z"/>
</g>
<g>
	<rect x="82.2" y="304.41" class="st1" width="2.36" height="11.56"/>
</g>
<g>
	<rect x="69.33" y="284.92" class="st1" width="8.69" height="92.04"/>
</g>
<g>
	<rect x="82.2" y="318.24" class="st1" width="2.36" height="11.56"/>
</g>
<g>
	<rect x="82.2" y="332.08" class="st1" width="2.36" height="11.56"/>
</g>
<g>
	<rect x="82.2" y="345.91" class="st1" width="2.36" height="11.56"/>
</g>
<g>
	<path class="st1" d="M129.64,313.16c-3.34,0-6.07-2.72-6.07-6.07c0-3.35,2.72-6.07,6.07-6.07c3.34,0,6.07,2.72,6.07,6.07
		C135.71,310.44,132.99,313.16,129.64,313.16z M129.64,302.82c-2.36,0-4.28,1.92-4.28,4.28s1.92,4.28,4.28,4.28
		c2.36,0,4.28-1.92,4.28-4.28S132,302.82,129.64,302.82z"/>
</g>
<g>
	<path class="st1" d="M257.93,67.07v25.11h-2.6V67.07H257.93 M258.86,66.14h-4.46V93.1h4.46V66.14L258.86,66.14z"/>
</g>
<g>
	<line class="st1" x1="569.73" y1="327.79" x2="580.2" y2="345.92"/>
	
		<rect x="572.73" y="326.39" transform="matrix(0.866 -0.5 0.5 0.866 -91.3987 332.6269)" class="st1" width="4.48" height="20.94"/>
</g>
<g>
	<line class="st1" x1="616.29" y1="408.43" x2="594.87" y2="371.33"/>
	
		<rect x="603.34" y="368.47" transform="matrix(0.866 -0.5 0.5 0.866 -113.8078 354.998)" class="st1" width="4.48" height="42.84"/>
</g>
<g>
	<line class="st1" x1="605.2" y1="363.92" x2="592.32" y2="371.36"/>
	
		<rect x="591.33" y="365.4" transform="matrix(0.8661 -0.4999 0.4999 0.8661 -103.5973 348.5176)" class="st1" width="14.87" height="4.47"/>
</g>
<g>
	<polygon class="st1" points="204.82,253.67 204.82,257.09 220.51,257.09 220.51,270.21 224.42,270.21 224.42,257.09 224.42,256.98 
		224.42,253.67 	"/>
</g>
<rect x="588.4" y="104.58" class="st1" width="2.75" height="30.46"/>
<rect x="588.4" y="137.17" class="st1" width="2.75" height="30.46"/>
<rect x="588.4" y="169.75" class="st1" width="2.75" height="30.46"/>
<rect x="588.4" y="202.34" class="st1" width="2.75" height="30.46"/>
<rect x="588.4" y="234.93" class="st1" width="2.75" height="30.46"/>
<path class="st1" d="M671.64,151.34c0,2.02-1.64,3.66-3.66,3.66c-2.02,0-3.66-1.64-3.66-3.66s1.64-3.66,3.66-3.66
	C670,147.68,671.64,149.32,671.64,151.34z"/>
<path class="st1" d="M671.64,217.3c0,2.02-1.64,3.66-3.66,3.66c-2.02,0-3.66-1.64-3.66-3.66s1.64-3.66,3.66-3.66
	C670,213.65,671.64,215.28,671.64,217.3z"/>
<rect x="415.21" y="303.68" class="st1" width="39.49" height="5.66"/>
<rect x="441.84" y="380.59" transform="matrix(0.8143 -0.5805 0.5805 0.8143 -136.8417 339.1641)" class="st1" width="39.49" height="5.66"/>
<g>
	<rect x="154.19" y="163.55" class="st1" width="4.72" height="19.41"/>
</g>
</svg>
